<?xml version="1.0" encoding="utf-8"?>
<!-- Generator: Adobe Illustrator 27.5.0, SVG Export Plug-In . SVG Version: 6.00 Build 0)  -->
<svg version="1.1" xmlns="http://www.w3.org/2000/svg" xmlns:xlink="http://www.w3.org/1999/xlink" x="0px" y="0px"
	 viewBox="0 0 500 500" style="enable-background:new 0 0 500 500;" xml:space="preserve">
<g id="BACKGROUND">
	<path style="fill:#F4F4F4;" d="M398.999,298.949c-43.442,16.269-91.547-13.21-121.293-48.806c-5.5-6.582-13.454-9.793-24.947-4.768
		c-35.025,15.312-107.902,131.489-156.496,61.832c-42.309-60.646,94.69-73.125,60.854-131.709
		c-33.836-58.584-60.854-101.443,27.534-139.614c89.814-38.787,93.988,103.659,197.221,52.177
		c103.233-51.482,127.315,160.352,40.074,201.203C413.939,293.013,406.29,296.219,398.999,298.949z"/>
</g>
<g id="OBJECTS">
	<g>
		<g id="Plant">
			<ellipse style="fill:#A85AA1;" cx="70.992" cy="354.949" rx="24.093" ry="4.422"/>
			<polygon style="fill:#A85AA1;" points="107.44,268.755 34.344,268.755 47.074,354.443 94.983,354.443 			"/>
			<ellipse style="fill:#71508E;" cx="70.892" cy="268.892" rx="36.548" ry="6.707"/>
			<path style="fill:#5EA9BE;" d="M41.536,272.887c6.66,1.646,17.329,2.712,29.356,2.712c12.027,0,22.696-1.067,29.356-2.712
				c-6.66-1.645-17.328-2.712-29.356-2.712C58.864,270.175,48.196,271.241,41.536,272.887z"/>
			<g>
				<path style="fill:#FDF8E2;" d="M117.685,149.293c-3.359,0.233-6.688-1.105-8.425,3.066c-1.736,4.171-2.353,5.306-3.811,6.042
					c-1.458,0.736-6.892,2.84-9.868,7.454c-0.838,1.3-2.159,2.277-3.624,3.01c0.559-1.8,1.266-3.605,2.887-4.468
					c3.389-1.804,1.947-6.29,1.128-10.085c-0.819-3.795-0.826-5.621,1.286-7.237c2.112-1.616,1.985-6.035,0.399-9.717
					c-1.585-3.683,0.121-6.283,0.121-6.283s-4.224,3.231-6.764,7.259c-2.54,4.028,1.518,4.998-0.211,10.995
					c-1.729,5.997-4.104,5.824-3.36,9.108c0.744,3.284,1.555,5.253-0.775,7.162c-1.802,1.477-2.682,3.91-2.989,4.936
					c0.111-3.46-1.855-7.699-2.294-10.686c-0.488-3.322,3.014-4.359,1.534-9.101c-1.48-4.742-0.015-3.652-1.014-6.899
					c-0.999-3.247-3.99-2.285-5.365-8.087c-1.375-5.802-4.298-6.155-4.298-6.155c0.428,6.463-3.923,5.275-2.917,10.348
					c1.007,5.073,1.698,4.449,0.029,7.305c-1.669,2.856,0.315,5.697,1.608,9.161c1.292,3.465-0.82,5.08-0.218,9.169
					c0.601,4.088,3.84,1.263,4.584,4.547c0.744,3.284-0.932,4.314,1.848,5.471c2.78,1.157,3.507,1.135,3.507,1.135
					c-1.415,2.718-2.683,5.522-3.815,8.388c-0.17-0.644-0.518-1.261-1.158-1.737c-2.345-1.744-1.585-3.683-3.051-4.772
					c-1.465-1.09-2.164-2.292-2.465-4.337c-0.3-2.044-0.608-5.915-2.329-6.967c-1.721-1.052-3.216-0.572-3.855-4.915
					c-0.638-4.344-1.105-2.187-2.54-4.847c-1.435-2.661-1.292-3.465-2.758-4.555c-0.068,1.315,1.555,5.253-0.045,6.794
					c-1.601,1.541-0.564,5.043-1.984,6.035c-1.42,0.992-2.135,5.013,0.248,7.012c2.382,1.999,2.57,3.277,2.983,6.087
					c0.413,2.811,0.045,2.082,4.554,6.118c4.509,4.036,1.157,6.095,4.05,8.019c2.683,1.785,4.103-0.285,5.345,0.813
					c-1.513,5.108-2.669,10.324-3.537,15.519c-1.026-1.467-0.903-3.346-1.035-5.742c-0.158-2.848-2.532-3.021-4.328-4.585
					c-1.796-1.563-2.968-2.435-3.088-5.028c-0.12-2.593-1.946-2.585-4.216-3.818c-2.269-1.233-3.848-3.089-5.433-6.772
					c-1.586-3.682-6.11-2.495-6.11-2.495s-1.962,11.513,2.066,14.054c4.028,2.54,0.608,5.915,3.208,7.621
					c2.6,1.706,4.892-0.458,5.959,1.473c1.067,1.932,3.171,7.365,5.508,7.283c1.662-0.059,4.658,0.875,6.831,2.179
					c-0.67,4.824-1.107,9.598-1.368,14.219c0.085-4.049-0.845-5.275-3.706-6.215c-3.292-1.082-7.214-4.682-7.808-6.945
					c-0.594-2.262-2.593,0.12-5.088-2.646c-2.495-2.766-5.095-4.472-7.395-4.134c0.293,0.218,2.547,6.674,1.239,8.432
					c-1.308,1.758,1.713,8.102,4.306,7.981c2.593-0.12,4.389,1.443,5.824,4.104c1.435,2.66,3.803,1.007,6.696,2.931
					c2.665,1.772,2.508,2.409,5.692,2.228c-0.481,17.635,1.409,32.19,2.17,37.227c0.167,1.108,1.085,1.945,2.203,2.015
					c0.022,0.001,0.045,0.003,0.067,0.004c1.545,0.098,2.759-1.28,2.494-2.805c-2.791-16.012-3.24-30.939-2.428-44.151
					c1.008-0.132,2.318-0.503,3.398-1.477c2.074-1.871,6.824-1.525,8.65-1.533c1.826-0.007,3.675-3.412,4.472-5.095
					c0.797-1.683,4.524-1.187,6.711-2.292c2.187-1.105,3.954-6.846,4.382-9.258c0.429-2.412,5.449-7.327,5.449-7.327
					s-2.953,1.217-5.869,2.69c-2.916,1.473-3.142-0.06-4.855,0.714c-1.714,0.774-3.172,1.51-4.043,2.683
					c-0.872,1.172-2.367,1.653-4.337,2.465c-1.969,0.812-1.27,2.014-3.525,4.434c-2.255,2.42-6.268,3.532-6.892,2.84
					c-0.624-0.691-1.992,4.208-2.601,7.169c-0.183,0.89-0.486,1.606-0.82,2.176c0.537-7.572,1.482-14.557,2.625-20.832
					c1.95-0.06,4.315,0.528,5.17,0.402c1.278-0.188,2.984-2.788,4.036-4.509c1.052-1.721,4.705-1.736,7.733-2.442
					c3.029-0.706,3.014-4.359,4.465-6.921c1.451-2.563,2.623-1.691,5.614-2.652c2.991-0.962,5.126-5.974,5.299-8.349
					c0.16-2.202,4.177-5.643,4.79-5.928c-5.081,0.518-6.488,3.312-7.863,4.552c-1.383,1.247-4.013,1.112-8.064,1.969
					c-4.051,0.856-6.441,5.906-8.185,8.251c-1.744,2.345-2.368,1.653-6.561,3.314c-4.193,1.661-2.03,3.953-5.263,6.424
					c2.018-9.371,4.371-16.784,6.172-21.719c0,0,1.813-0.258,3.756-0.798c2.421-0.1,5.201-0.519,6.805-1.777
					c3.277-2.57,3.848-5.786,8.41-6.718c4.562-0.931,8.981-1.059,11.596-4.576c2.615-3.517,2.21-4.502,6.403-6.162
					c4.193-1.661,6.681-9.596,6.681-9.596S121.044,149.061,117.685,149.293z"/>
				<path style="fill:#55583D;" d="M112.752,172.022c0.027-0.003,0.053-0.006,0.081-0.009C112.83,171.995,112.8,172,112.752,172.022
					z"/>
			</g>
			<path style="fill:#5EA9BE;" d="M85.65,230.042c4.591,0.8,27.758,4.388,30.197-4.227c2.63-9.286-18.82-3.115-28.062-1.955
				c0.988-2.769,2.042-5.594,3.157-8.438c4.194,0.522,22.822,2.34,24.484-6.267c1.64-8.493-17.145-1.928-21.865-0.155
				c1.653-3.894,3.42-7.768,5.3-11.525c4.463,0.225,22.925,0.777,23.939-5.421c1.505-9.199-15.022-3.781-20.165-1.668
				c1.589-2.798,3.245-5.483,4.967-8.01c-0.184,0.646-0.137,1.259,0.184,1.788c0,0,10.962,2.938,12.714-0.78
				c1.752-3.718,0.162-7.983-5.217-6.575c-3.314,0.868-5.901,2.614-7.084,4.346c-0.024-0.222-0.138-0.434-0.336-0.572
				c-0.185-0.128-0.405-0.166-0.609-0.127c0.286-0.495,0.427-0.887,0.427-0.887s1.58-14.902-5.42-12.329
				c-7,2.573-0.187,15.13,2.088,15.216c0.626,0.024,1.16-0.185,1.605-0.5c-1.596,2.373-3.136,4.877-4.617,7.478
				c-0.66-3.973-3.091-14.614-9.809-10.792c-7.671,4.364,1.509,16.909,5.683,18.566c-1.743,3.507-3.39,7.109-4.935,10.731
				c-0.637-4.36-2.958-16.303-9.008-13.771c-7.141,2.99-1.251,17.007,6.175,20.703c-1.052,2.681-2.048,5.346-2.987,7.962
				c-1.887-3.774-9.09-16.838-17.674-15.302c-9.882,1.769-3.174,17.542,15.269,22.254c-1.055,3.162-2.02,6.204-2.888,9.055
				c-0.054,0.179-0.108,0.357-0.162,0.535c-3.169-3.314-17.288-17.393-19.852-7.921c-2.589,9.565,13.932,15.835,17.219,17.01
				c-0.722,2.606-1.378,5.075-1.969,7.369c-2.778-2.943-13.709-13.941-16.035-7.344c-2.327,6.602,10.758,13.333,14.153,14.951
				c-1.318,5.558-1.996,8.965-2.01,9.035c-0.085,0.434,0.197,0.855,0.63,0.94c0.008,0.001,0.016,0.003,0.024,0.004
				c0.425,0.071,0.832-0.209,0.916-0.634c0.014-0.071,0.708-3.556,2.057-9.228c2.802,0.982,17.483,3.55,18.376-3.474
				c0.867-6.82-12.929-4.585-16.553-3.884c0.592-2.298,1.251-4.774,1.975-7.386c4.349,0.593,21.418,2.461,22.327-4.625
				c0.926-7.216-15.945-4.934-19.731-4.333c0.057-0.188,0.114-0.375,0.171-0.564C83.583,236.382,84.569,233.274,85.65,230.042z"/>
			<g>
				<path style="fill:#507C89;" d="M9.031,217.935c1.925-0.91,3.347-2.677,5.594-0.913c2.247,1.764,2.937,2.199,3.969,2.155
					c1.032-0.044,4.679-0.563,7.747,1.062c0.864,0.458,1.894,0.588,2.929,0.54c-0.865-0.82-1.812-1.597-2.973-1.572
					c-2.427,0.053-3.018-2.868-3.739-5.214c-0.721-2.346-1.282-3.356-2.946-3.594c-1.664-0.238-2.96-2.715-3.224-5.236
					c-0.264-2.521-2.008-3.428-2.008-3.428s3.328,0.477,5.975,1.913c2.646,1.437,0.708,3.226,3.515,5.999
					c2.807,2.773,4.064,1.944,4.668,3.985c0.605,2.041,0.766,3.378,2.641,3.711c1.451,0.257,2.688,1.327,3.174,1.799
					c-1.131-1.874-1.356-4.82-2.037-6.603c-0.757-1.983-3.01-1.472-3.659-4.546c-0.649-3.073-1.121-2.019-1.573-4.119
					c-0.452-2.1,1.495-2.494,0.46-6.119c-1.035-3.625,0.468-4.723,0.468-4.723c1.762,3.697,3.795,1.697,4.807,4.806
					c1.013,3.109,0.438,2.979,2.242,4.038c1.803,1.059,1.587,3.239,1.945,5.55c0.358,2.31,2.022,2.549,2.954,4.99
					c0.932,2.441-1.728,1.883-1.123,3.925c0.605,2.041,1.847,2.091,0.672,3.589c-1.175,1.497-1.583,1.71-1.583,1.71
					c1.62,1.062,3.186,2.216,4.697,3.447c-0.106-0.408-0.104-0.855,0.102-1.316c0.754-1.686-0.264-2.521,0.208-3.575
					c0.471-1.054,0.485-1.933,0.019-3.154c-0.466-1.22-1.493-3.45-0.868-4.563s1.597-1.309,0.607-3.903
					c-0.991-2.593-0.067-1.548-0.097-3.459c-0.031-1.911-0.358-2.311,0.113-3.365c0.444,0.704,0.766,3.378,2.125,3.733
					c1.359,0.355,1.87,2.607,2.96,2.715c1.09,0.108,2.727,2.105,2.031,3.944c-0.696,1.839-0.405,2.602,0.236,4.28
					c0.641,1.678,0.619,1.162-0.621,4.782c-1.24,3.62,1.246,3.719,0.245,5.675c-0.928,1.814-2.351,1.111-2.697,2.101
					c2.414,2.35,4.663,4.87,6.747,7.466c0.112-1.126-0.536-2.124-1.204-3.487c-0.793-1.62,0.463-2.449,0.97-3.867
					c0.507-1.417,0.885-2.261,0.149-3.728c-0.735-1.467,0.274-2.027,1.145-3.409c0.871-1.381,1.167-2.893,0.904-5.414
					c-0.264-2.521,2.599-3.265,2.599-3.265s4.641,5.744,3.204,8.39s1.493,3.45,0.586,5.195c-0.907,1.745-2.84,1.259-2.832,2.655
					c0.008,1.395,0.527,5.043-0.787,5.719c-0.935,0.482-2.299,1.923-3.094,3.313c1.861,2.454,3.577,4.952,5.149,7.42
					c-1.298-2.207-1.164-3.171,0.123-4.573c1.481-1.614,2.532-4.813,2.16-6.244s1.467-0.735,1.989-3.032
					c0.521-2.297,1.428-4.041,2.801-4.566c-0.094,0.211,0.658,4.468,1.923,5.034c1.265,0.566,1.559,4.998,0.092,5.733
					c-1.467,0.735-1.975,2.153-1.944,4.064c0.031,1.911-1.786,1.731-2.787,3.686c-0.922,1.801-0.639,2.104-2.451,2.988
					c5.716,9.578,9.172,18.19,10.31,21.204c0.25,0.663,0.003,1.408-0.592,1.793c-0.012,0.008-0.024,0.015-0.036,0.023
					c-0.822,0.531-1.918,0.147-2.243-0.776c-3.41-9.694-7.776-18.066-12.307-25.103c-0.597,0.239-1.434,0.439-2.331,0.236
					c-1.722-0.391-4.235,1.268-5.245,1.828c-1.01,0.56-3.082-0.746-4.042-1.428c-0.96-0.682-2.862,0.744-4.41,0.81
					c-1.548,0.067-4.297-2.554-5.279-3.752c-0.982-1.198-5.27-2.357-5.27-2.357s2.005-0.242,4.069-0.33
					c2.064-0.089,1.714-1.004,2.898-1.107c1.184-0.103,2.216-0.147,3.059,0.23c0.843,0.377,1.817,0.18,3.154,0.019
					c1.337-0.161,1.323,0.718,3.315,1.356c1.992,0.638,4.549,0.011,4.679-0.563c0.13-0.574,2.399,1.706,3.65,3.15
					c0.376,0.434,0.765,0.735,1.125,0.947c-2.637-4.01-5.317-7.571-7.887-10.679c-1.094,0.57-2.217,1.625-2.727,1.82
					c-0.763,0.291-2.507-0.616-3.62-1.239c-1.112-0.624-3.131,0.497-5.02,1.043c-1.889,0.547-3.01-1.473-4.602-2.438
					c-1.592-0.965-1.969-0.122-3.916,0.272c-1.947,0.394-4.674-1.711-5.503-2.967c-0.769-1.165-4.048-1.821-4.474-1.789
					c2.962-1.285,4.602-0.179,5.744,0.081c1.149,0.26,2.557-0.627,5.056-1.407c2.499-0.78,5.378,1.267,7.065,2.021
					c1.687,0.754,1.817,0.18,4.643-0.2c2.826-0.38,2.341,1.553,4.889,1.916c-4.009-4.545-7.599-7.907-10.117-10.072
					c0,0-1.08,0.418-2.318,0.721c-1.366,0.693-3.029,1.321-4.303,1.123c-2.602-0.405-3.911-2.002-6.715-1.106
					c-2.804,0.896-5.281,2.192-7.811,1.06c-2.53-1.131-2.61-1.8-5.437-1.42c-2.826,0.38-6.651-3.228-6.651-3.228
					S7.106,218.845,9.031,217.935z"/>
				<path style="fill:#507C89;" d="M18.777,228.947c-0.016,0.007-0.031,0.013-0.047,0.02
					C18.725,228.956,18.743,228.949,18.777,228.947z"/>
			</g>
			<path style="fill:#9ACDE0;" d="M67.073,240.007c-3.366,0.192-20.315,0.837-21.349-5.558c-1.115-6.893,13.785-0.668,20.33,0.937
				c-0.479-2.072-1-4.19-1.565-6.327c-3.058,0.025-16.597-0.223-17.073-6.547c-0.47-6.24,12.482,0.045,15.726,1.713
				c-0.863-2.937-1.81-5.868-2.847-8.725c-3.226-0.211-16.54-1.354-16.752-5.894c-0.314-6.737,11.111-1.464,14.631,0.484
				c-0.908-2.144-1.875-4.211-2.901-6.171c0.078,0.48-0.006,0.916-0.281,1.269c0,0-8.123,1.196-9.072-1.622
				c-0.949-2.818,0.55-5.751,4.298-4.29c2.309,0.9,4.023,2.371,4.729,3.715c0.036-0.158,0.135-0.3,0.289-0.383
				c0.143-0.077,0.305-0.086,0.448-0.04c-0.164-0.38-0.233-0.673-0.233-0.673s0.108-10.842,4.924-8.408
				c4.816,2.434-1.128,10.889-2.77,10.761c-0.452-0.035-0.818-0.23-1.112-0.493c0.949,1.839,1.847,3.767,2.694,5.759
				c0.806-2.8,3.441-10.244,7.95-6.937c5.148,3.776-2.495,12.026-5.633,12.868c0.96,2.666,1.843,5.392,2.651,8.124
				c0.822-3.08,3.487-11.47,7.623-9.145c4.883,2.744-0.52,12.327-6.165,14.363c0.532,2.015,1.026,4.013,1.482,5.971
				c1.671-2.555,7.938-11.343,13.979-9.522c6.954,2.096,0.817,12.872-12.831,14.719c0.494,2.361,0.934,4.627,1.32,6.749
				c0.024,0.133,0.048,0.266,0.072,0.398c2.554-2.117,13.876-11.057,14.928-4.036c1.063,7.09-11.334,10.218-13.794,10.788
				c0.301,1.933,0.567,3.762,0.8,5.46c2.242-1.883,11.016-8.875,12.137-3.94c1.121,4.939-8.844,8.684-11.419,9.564
				c0.483,4.104,0.686,6.609,0.691,6.661c0.025,0.319-0.213,0.598-0.531,0.623c-0.006,0.001-0.012,0.001-0.018,0.001
				c-0.311,0.015-0.58-0.22-0.605-0.532c-0.004-0.052-0.212-2.615-0.708-6.804c-2.096,0.472-12.861,1.092-12.917-4.03
				c-0.054-4.974,9.675-2.216,12.22-1.41c-0.234-1.701-0.5-3.535-0.803-5.473c-3.175,0.063-15.598-0.019-15.66-5.187
				c-0.064-5.263,11.871-2.215,14.542-1.468c-0.025-0.14-0.05-0.279-0.076-0.419C68.03,244.735,67.58,242.419,67.073,240.007z"/>
		</g>
		<path id="Shadow" style="fill:#DAE2E5;" d="M442.773,424.179c-6.038-0.937-6.851-9.368-1.085-11.39
			c11.324-3.972,17.612-8.366,17.612-12.986c0-17.783-93.127-32.199-208.005-32.199S43.289,382.02,43.289,399.803
			c0,10.05,29.745,19.024,76.347,24.928c5.277,0.669,6.981,7.361,2.747,10.58c-2.616,1.988-4.116,3.873-4.116,5.458
			c0,7.514,21.475,13.605,47.965,13.605c23.098,0,59.778-12.675,68.793-20.903c1.096-1.001,2.519-1.54,4.003-1.526
			c4.058,0.037,8.147,0.057,12.265,0.057c27.397,0,53.552-0.821,77.505-2.311c3.564-0.222,6.334,2.741,6.242,6.311
			c-0.001,0.027-0.001,0.055-0.001,0.082c0,8.098,30.456,14.663,68.025,14.663c37.569,0,68.025-6.565,68.025-14.663
			C471.09,431.18,459.923,426.84,442.773,424.179z"/>
		<g id="Person">
			<g>
				<path style="fill:#5EA9BE;" d="M142.152,396.9c0,0,49.583,27.512,89.793,29.629c40.21,2.116,158.725-9.675,199.238-29.629
					c5.744-2.116,5.442-76.49-11.186-93.119c1.814,1.512,3.628-2.419,0-9.675c1.512,0,9.372-31.14,0-56.234
					c-9.372-25.094-33.559-55.025-74.072-42.931c-40.513,12.093-73.769-3.628-100.677,77.397c1.209,0-88.281,0.907-106.421,32.35
					c-18.14,31.443-27.21,81.932-27.21,81.932S118.267,397.807,142.152,396.9z"/>
				<path style="fill:none;stroke:#507C89;stroke-width:2.571;stroke-linecap:round;stroke-miterlimit:10;" d="M353.785,304.688
					c0,0,4.233-16.628,22.675-15.721"/>
				<path style="fill:none;stroke:#507C89;stroke-width:2.571;stroke-linecap:round;stroke-miterlimit:10;" d="M350.762,283.525
					c0,0,8.616-3.779,16.175,5.291"/>
				<path style="fill:none;stroke:#507C89;stroke-width:2.571;stroke-linecap:round;stroke-miterlimit:10;" d="M381.902,265.083
					c0,0-3.023,0.907-5.442,10.279"/>
				<path style="fill:none;stroke:#507C89;stroke-width:2.571;stroke-linecap:round;stroke-miterlimit:10;" d="M125.977,363.19
					c0,0,14.512,3.023,17.838,14.21"/>
				<path style="fill:none;stroke:#507C89;stroke-width:2.571;stroke-linecap:round;stroke-miterlimit:10;" d="M152.582,362.585
					c4.693,1.946-12.252-5.473-16.637,4.686"/>
			</g>
			<g>
				<path style="fill:#FDF8E2;" d="M337.761,233.64c0,0,19.652,1.814,28.722,5.14c9.07,3.326,13.605,5.14,19.047,0
					c5.442-5.14,19.349-44.443,19.954-53.513c0.605-9.07-40.21-18.14-40.21-18.14s-26.605-10.884-41.117,13.605
					s-10.884,43.234-10.884,43.234L337.761,233.64z"/>
				<path style="fill:#FDF8E2;" d="M400.949,185.267c0,0,12.698-10.884,19.047-9.675
					C419.996,179.522,412.135,189.802,400.949,185.267z"/>
				<path style="fill:#FDF8E2;" d="M383.716,235.454c0,0,10.279,0.235,10.279,11.186
					C393.995,252.385,380.39,239.082,383.716,235.454z"/>
				<path style="fill:none;stroke:#CBE1EF;stroke-width:2.571;stroke-linecap:round;stroke-miterlimit:10;" d="M401.1,187.837
					c0,0-8.163,33.861-16.024,41.117"/>
			</g>
			<g>
				<path style="fill:#A85AA1;" d="M289.69,204.314c0,0-29.175,2.57-38.548,11.337c-9.372,8.768-33.861,28.117-33.861,28.117
					l-0.744,15.381"/>
				<g>
					<path style="fill:#71508E;" d="M222.875,272.339h-83.142c0,0-6.047,39.606,14.21,39.908
						c20.256,0.302,68.327,3.628,68.327,3.628S231.038,284.13,222.875,272.339z"/>
					<path style="fill:#71508E;" d="M97.104,332.201l16.105,29.749c2.476,4.574,9.009,4.663,11.608,0.157l34.87-60.442
						c0,0,5.75-26.665-20.861-29.326C135.803,272.036,97.104,332.201,97.104,332.201z"/>
					
						<line style="fill:none;stroke:#A85AA1;stroke-width:2.571;stroke-linecap:round;stroke-miterlimit:10;" x1="195.816" y1="291.234" x2="204.829" y2="307.207"/>
					<path style="fill:none;stroke:#A85AA1;stroke-width:2.571;stroke-linecap:round;stroke-miterlimit:10;" d="M157.117,302.723
						c0,0-6.651-13.907-11.489-19.047"/>
					<path style="fill:none;stroke:#A85AA1;stroke-width:2.571;stroke-linecap:round;stroke-miterlimit:10;" d="M151.373,283.676
						c0,0,5.423,7.205,4.979,15.545"/>
					<g>
						<path style="fill:#F2998B;" d="M72.134,320.107c0,0-4.523-9.279-7.567-3.258c-0.162,0.32-0.333,1.891-0.37,2.237
							c-1.24-0.222-1.776-0.419-3.136,1.683c-0.428,0.661-0.317,2.684,0.701,3.425c-2.807,2.994,2.902,5.172,2.902,5.172
							c1.288,0.061,1.784-2.804,1.778-4.961c0.48,0.7,0.853,1.121,0.853,1.121L72.134,320.107z"/>
						<path style="fill:#F3BFB3;" d="M107.14,350.721l-9.836-18.092l-4.115,4.453c-1.19,1.288-3.279,1.094-4.212-0.392
							l-11.52-18.353c0,0-0.5-6.444-2.668-7.644c-3.093-1.712-10.307,3.888-5.349,10.582c-0.399,0.375-6.856,4.747-4.129,12.432
							c1.363,3.842,3.285,6.569,4.865,8.336c1.818,2.032,3.192,4.413,3.951,7.031c2.027,6.99,6.705,17.729,14.902,18.887
							c7.032,0.993,8.072-5.323,9.497-6.933c0.115-0.13,0.249-0.241,0.366-0.368L107.14,350.721z"/>
						<path style="fill:#F2998B;" d="M70.64,324.659c0,0-5.454,17.105,10.164,18.592C82.044,343.994,68.409,339.532,70.64,324.659z"
							/>
						<polygon style="fill:#F2998B;" points="97.304,332.629 107.14,350.721 103.187,355.482 94.573,335.585 						"/>
					</g>
				</g>
				<g>
					<g>
						<path style="fill:#71508E;" d="M228.014,281.711c0,0-36.582,39.303-42.629,48.978c-6.047,9.675,19.954,43.838,36.885,32.35
							s34.466-34.768,48.071-39.606C272.76,318.596,248.573,281.711,228.014,281.711z"/>
						<path style="fill:#71508E;" d="M165.129,412.017c0,0,11.791-70.746,20.256-83.746c8.465-13,42.629,1.209,36.885,34.768
							c-1.818,0.909-6.591,35.737-8.4,55.396c-0.594,6.45-5.976,11.401-12.453,11.45
							C187.283,429.992,165.129,427.664,165.129,412.017z"/>
						<path style="fill:none;stroke:#A85AA1;stroke-width:2.571;stroke-linecap:round;stroke-miterlimit:10;" d="M228.014,281.711
							c0,0-36.582,39.303-42.629,48.978"/>
						<path style="fill:none;stroke:#A85AA1;stroke-width:2.571;stroke-linecap:round;stroke-miterlimit:10;" d="M209.723,360.771
							c0,0,2.584-3.475,11.654,1.665c0,0-1.072-8.316-10.142-13.456"/>
						<path style="fill:#A85AA1;" d="M202.527,428.888c4.435-0.034,7.245-1.37,9.468-4.907
							c-31.301-10.357-46.866-11.965-46.866-11.965C165.129,427.664,188.393,428.996,202.527,428.888z"/>
					</g>
					<g>
						<path style="fill:#F3BFB3;" d="M184.931,415.893c-2.772-1.184-18.821-3.877-18.821-3.877l-3.087,11.503
							c-0.672,2.241-2.343,4.045-4.525,4.888l-17.592,6.798c-0.001,0-9.67,0-9.668,6.152c0.259,3.568,3.234,3.992,5.701,3.718
							c0.835,2.322,3.408,2.486,5.462,2.192c0.381,4.53,5.496,3.572,7.584,2.986c1.348,2.46,6.182,1.309,9.219,0.284
							c1.004-0.182,1.914-0.485,2.545-0.973c2.024-0.118,5.035-2.358,7.043-2.932c8.237-2.353,7.787-1.89,11.568-4.453
							c2.398-1.626,2.255-5.891,1.953-8.304c-0.164-1.314-0.852-2.646-0.545-3.935C182.734,425.888,184.709,417.221,184.931,415.893
							z"/>
						<path style="fill:#F2998B;" d="M149.985,450.254l-1.635,0.36c0,0-1.115-3.934,1.635-5.309c2.75-1.375,3.5,0,3.5,0
							S148.61,444.952,149.985,450.254z"/>
						<path style="fill:#F2998B;" d="M142.401,447.268c0,0-0.041-4.046,4.292-4.796c0.25,0.083-4.963-0.118-5.251,4.889
							L142.401,447.268z"/>
						<path style="fill:#F2998B;" d="M136.939,445.076c0,0,0.129-4.979,5.421-5.771c-1.458-0.375-6.292,0.333-7.078,5.821
							C135.529,445.14,136.939,445.076,136.939,445.076z"/>
						<path style="fill:#F2998B;" d="M179.164,421.606c0,0,1.701,7.811-2.457,10.332
							C178.219,432.002,183.134,429.545,179.164,421.606z"/>
						<path style="fill:#F2998B;" d="M165.507,414.266l18.706,5.022c0.367-1.657,0.643-2.947,0.718-3.394
							c-2.772-1.184-18.821-3.877-18.821-3.877L165.507,414.266z"/>
					</g>
				</g>
				<path style="fill:#A85AA1;" d="M288.886,204.497c0,0-19.76,2.545-29.732,16.747c-9.972,14.202-61.812,51.094-61.812,51.094
					s17.917-0.439,23.555,9.817c7.146,12.999,29.915,44.722,52.276,45.93c22.361,1.209,48.65-55.902,48.65-55.902
					s16.317-33.239,12.691-49.556C330.888,206.31,315.78,197.245,288.886,204.497z"/>
				<path style="fill:#A85AA1;" d="M270.454,243.477c0,0,47.441,35.354,58.319,48.952c0.906,1.511-15.109,22.663-27.8,19.641
					c-12.691-3.022-46.535-44.722-46.535-44.722S256.252,253.751,270.454,243.477z"/>
				<path style="fill:#A85AA1;" d="M294.981,284.583l36.582-69.939c0,0,13.605,17.031,14.21,37.891
					c0.605,20.861-25.4,51.117-25.4,51.117L294.981,284.583z"/>
				<g>
					<path style="fill:#F3BFB3;" d="M297.54,195.727l-9.684,18.271c-2.269,4.977,1.832,10.496,7.254,9.772
						c3.979-0.532,8.477-2.076,12.569-5.7c7.105-6.5,14.848-20.918,14.848-20.918L297.54,195.727z"/>
					<path style="fill:#F2998B;" d="M294.681,201.868c3.926,1.464,8.547,2.49,13.986,2.813c3.387,0.201,6.538-0.038,9.467-0.62
						c2.187-3.122,4.036-6.26,4.036-6.26l-24.987-1.424L294.681,201.868z"/>
				</g>
				
					<line style="fill:none;stroke:#71508E;stroke-width:2.571;stroke-linecap:round;stroke-linejoin:round;stroke-miterlimit:10;" x1="303.507" y1="268.282" x2="324.307" y2="228.349"/>
				<path style="fill:#71508E;" d="M270.454,243.477c-14.202,10.274-16.015,23.872-16.015,23.872s0.359,0.442,1.007,1.228
					c4.844-3.643,10.665-10.752,15.725-24.563C270.704,243.664,270.454,243.477,270.454,243.477z"/>
				
					<path style="fill:none;stroke:#71508E;stroke-width:2.571;stroke-linecap:round;stroke-linejoin:round;stroke-miterlimit:10;" d="
					M275.329,209.907c-6.628,2.137-9.991,4.738-16.175,11.337c-2.508,2.677-6.047,6.998-10.949,11.433"/>
				<g>
					
						<path style="fill:none;stroke:#71508E;stroke-width:2.571;stroke-linecap:round;stroke-linejoin:round;stroke-miterlimit:10;" d="
						M211.235,270.373c0,0,17.838-3.326,26.001,17.233c8.163,20.559,25.698,22.675,25.698,22.675"/>
					
						<path style="fill:none;stroke:#71508E;stroke-width:2.571;stroke-linecap:round;stroke-linejoin:round;stroke-miterlimit:10;" d="
						M262.934,298.188c0,0-7.614,5.634-21.947-3.23"/>
				</g>
				<g>
					<path style="fill:#CBE1EF;" d="M250.064,181.211l0.031-4.826c0,0-39.561,4.164-45.436,12.291
						C204.6,190.341,250.064,181.211,250.064,181.211z"/>
					<path style="fill:#CBE1EF;" d="M186.304,167.301l0.015-8.517c0,0,22.637,26.868,22.051,35.202
						c0.038-0.263-2.097-0.132-2.097-0.132L186.304,167.301z"/>
					<path style="fill:#5EA9BE;" d="M254.338,181.66l-2.456,64.12c-0.062,1.612-1.29,2.939-2.892,3.125l-44.16,5.128v-65.421
						l45.518-10.269C252.444,177.87,254.42,179.512,254.338,181.66z"/>
					<path style="fill:#5EA9BE;" d="M185.19,232.561l19.696,21.486v-65.304l-20.678-28.122c-0.605-0.823-1.911-0.368-1.873,0.653
						l2.584,70.624C184.927,232.144,185.023,232.379,185.19,232.561z"/>
					
						<line style="fill:none;stroke:#507C89;stroke-width:2.571;stroke-linecap:round;stroke-miterlimit:10;" x1="204.886" y1="252.233" x2="204.886" y2="188.139"/>
				</g>
				<g>
					<g>
						
							<ellipse transform="matrix(0.4008 -0.9162 0.9162 0.4008 28.6208 356.3806)" style="fill:#5EA9BE;" cx="286.762" cy="156.31" rx="19.358" ry="16.459"/>
						<path style="fill:#5EA9BE;" d="M301.841,162.906c-3.901,8.916-11.847,14.05-17.749,11.468
							c-5.902-2.582-7.525-11.903-3.624-20.819c3.901-8.916,11.847-14.05,17.749-11.468
							C304.119,144.67,305.741,153.991,301.841,162.906z"/>
					</g>
					<path style="fill:#F3BFB3;" d="M278.731,127.458l1.83,50.717c0,0,4.183,20.653,30.587,22.221
						c26.404,1.569,36.338-27.711,36.338-27.711s8.104-32.94-3.398-45.227C332.585,115.171,278.731,127.458,278.731,127.458z"/>
					<path style="fill:#84482A;" d="M327.505,111.669c0,0,30.606,3.643,45.506,25.42c-0.235,0.167-13.411,29.624-13.411,29.624
						l-20.349,1.309l-4.502-0.758l5.221-16.578c0,0-12.227-6.81-11.072-17.363C330.053,122.77,327.505,111.669,327.505,111.669z"/>
					<path style="fill:#84482A;" d="M349.753,132.22c0,0,8.379-21.432,15.537-19.577C372.448,114.498,349.753,132.22,349.753,132.22
						z"/>
					<path style="fill:#84482A;" d="M352.189,131.027c0,0,14.408-15.516,19.693-8.494
						C377.166,129.555,363.112,124.538,352.189,131.027z"/>
					<g>
						<ellipse style="fill:#507C89;" cx="302.916" cy="160.276" rx="1.562" ry="2.232"/>
						<path style="fill:#507C89;" d="M286.43,160.388c0,1.233-0.699,2.232-1.562,2.232c-0.863,0-1.562-0.999-1.562-2.232
							c0-1.232,0.699-2.232,1.562-2.232C285.731,158.156,286.43,159.155,286.43,160.388z"/>
						
							<path style="fill:none;stroke:#84482A;stroke-width:1.4821;stroke-linecap:round;stroke-linejoin:round;stroke-miterlimit:10;" d="
							M292.325,180.004c0,0,7.581,5.229,13.333-2.091"/>
						
							<path style="fill:none;stroke:#84482A;stroke-width:2.2232;stroke-linecap:round;stroke-linejoin:round;stroke-miterlimit:10;" d="
							M298.861,153.862c0,0,3.921-4.183,8.366,0"/>
						
							<path style="fill:none;stroke:#84482A;stroke-width:2.2232;stroke-linecap:round;stroke-linejoin:round;stroke-miterlimit:10;" d="
							M280.822,152.816c0,0,3.921-4.183,8.366,0"/>
						<path style="fill:#F2998B;" d="M322.478,164.94c0.613,2.377-3.026,5.371-8.129,6.688c-5.103,1.317-9.736,0.458-10.35-1.918
							c-0.613-2.377,3.026-5.371,8.128-6.688C317.231,161.705,321.865,162.564,322.478,164.94z"/>
						<path style="fill:#F2998B;" d="M280.353,163.492c-0.109-0.028-0.217-0.054-0.325-0.079l0.327,9.058
							c3.176,0.245,5.808-0.823,6.308-2.761C287.277,167.333,284.451,164.549,280.353,163.492z"/>
						
							<path style="fill:none;stroke:#84482A;stroke-width:1.4821;stroke-linecap:round;stroke-linejoin:round;stroke-miterlimit:10;" d="
							M291.149,158.96c0,0-2.614,7.581-3.529,10.588c-0.487,1.601,0.915,3.791,5.621,3.791"/>
						<path style="fill:#F2998B;" d="M296.639,184.318c0,0,3.66,1.307,7.32-0.784C303.697,184.057,301.344,190.592,296.639,184.318z
							"/>
					</g>
					<g>
						<g>
							
								<ellipse transform="matrix(0.4008 -0.9162 0.9162 0.4008 53.0146 425.5728)" style="fill:#5EA9BE;" cx="351.857" cy="172.257" rx="19.358" ry="16.459"/>
							<path style="fill:#9ACDE0;" d="M366.936,178.854c-3.901,8.916-11.847,14.05-17.749,11.468
								c-5.902-2.582-7.525-11.903-3.624-20.819c3.9-8.916,11.847-14.05,17.749-11.468
								C369.214,160.617,370.836,169.938,366.936,178.854z"/>
						</g>
						<path style="fill:#9ACDE0;" d="M359.103,148.38c0,0,6.426-7.885,2.976-15.04c-4.791-9.934-38.578-20.128-38.578-20.128
							l-4.022-5.62c0,0,32.646,6.928,49.759,21.668c5.387,4.641,7.086,13.449,4,20.494c-2.813,6.421-6.478,10.381-6.478,10.381
							L359.103,148.38z"/>
						<polygon style="fill:#FDF8E2;" points="357.777,150.957 360.852,144.944 370.263,155.371 367.724,159.845 						"/>
						<path style="fill:#5EA9BE;" d="M355.615,158.375l5.956-7.224l9.431,13.402l-2.055,6.804
							C368.947,171.357,365.294,158.871,355.615,158.375z"/>
						<polygon style="fill:#9ACDE0;" points="356.252,158.829 350.103,154.449 356.775,148.895 361.571,151.151 						"/>
					</g>
					<path style="fill:#84482A;" d="M334.794,125.37c0,0-1.745-12.951-9.799-16.293c-8.054-3.342-26.295-2.455-26.295-2.455
						s-23.597,1.828-25.009,14.719c-1.412,12.891-0.93,22.471,9.518,27.785c1.251,0.655,2.896-9.484,2.896-9.484
						s7.208,11.349,20.457,10.557c-0.405-0.292-1.06-7.411-1.06-7.411s5.361,8.787,10.836,9.901
						c2.276-0.083,1.061-9.329,1.061-9.329s2.939,10.697,8.885,12.865c0.057,0.021,3.917-6.716,3.917-6.716
						S335.044,132.197,334.794,125.37z"/>
				</g>
				
					<path style="fill:none;stroke:#71508E;stroke-width:2.571;stroke-linecap:round;stroke-linejoin:round;stroke-miterlimit:10;" d="
					M289.762,305.023c-15.049-12.693-35.324-37.674-35.324-37.674s1.813-13.598,16.015-23.872c0,0,47.441,35.354,58.319,48.952"/>
				<g>
					<path style="fill:#F3BFB3;" d="M183.526,202.711c0,0,6.728-2.419,7.085,2.228c0.191,2.486-1.9,3.433-3.836,3.781
						c-1.874,0.337-3.904,0.635-4.821-1.034C180.784,205.557,180.136,203.021,183.526,202.711z"/>
					<path style="fill:#F3BFB3;" d="M185.371,216.527c-1.89-0.134-3.307-1.814-3.111-3.698c0.129-1.242,0.782-4.108,2.403-3.26
						c3.775,1.975,6.73,0.997,6.73,3.988C191.393,216.432,187.904,216.706,185.371,216.527z"/>
					<path style="fill:#F3BFB3;" d="M184.259,216.161c0,0-2.817,5.908,0.83,6.315c1.662,0.185,5.982,1.994,6.231-0.748
						c0.249-2.742-2.628-4.985-2.628-4.985L184.259,216.161z"/>
				</g>
				<g>
					<path style="fill:#F3BFB3;" d="M252.193,235.972l0.347-7.377c0,0,8.237,2.322,11.167,12.581
						C260.027,241.176,252.193,235.972,252.193,235.972z"/>
					<path style="fill:#F3BFB3;" d="M247.735,232.752c1.415,1.004,3.01,1.701,4.693,2.12c2.51,0.625,6.642,2.13,10.828,5.714
						c0.986,0.844,1.729,4.51,3.729,6.843c0,1.792-0.793,7.458-8.579,14.48c-1.946,0.432-9.217-3.457-13.296-5.313
						c-1.553-0.707-2.997-1.637-4.261-2.783c-2.431-2.204-12.073-6.836-12.073-10.336c0-2.022,0.984-1.269,11.072,2.224
						c0.436,0.151,0.793-0.377,0.488-0.722c-1.053-1.188-1.759-1.578-4.143-2.99c-4.06-2.405-8.361-4.409-7.75-5.935
						c1.166-2.915,3.778-1.395,16.13,3.315c0.262,0.1,0.474-0.231,0.269-0.421c-1.338-1.242-3.634-3.459-6.112-5.494
						c-2.964-2.435-4.87-2.594-3.807-4.587C236.699,225.538,243.979,230.089,247.735,232.752z"/>
					<path style="fill:#F2998B;" d="M252.193,234.782l0.235-3.804l5.744,5.533c0.331,0.319-0.029,0.858-0.45,0.675L252.193,234.782z
						"/>
				</g>
			</g>
			<g>
				<path style="fill:#FDF8E2;" d="M338.079,198.962c0,0,14.512-15.721,33.559-13C372.243,186.567,372.848,210.149,338.079,198.962z
					"/>
				<path style="fill:none;stroke:#CBE1EF;stroke-width:2.571;stroke-linecap:round;stroke-miterlimit:10;" d="M337.172,199.87
					c0,0,5.109-6.162,12.245-8.012"/>
				<path style="fill:none;stroke:#CBE1EF;stroke-width:2.571;stroke-linecap:round;stroke-miterlimit:10;" d="M363.627,187.323
					c0,0,5.744-1.814,11.035,1.463"/>
				<path style="fill:none;stroke:#CBE1EF;stroke-width:2.571;stroke-linecap:round;stroke-miterlimit:10;" d="M336.568,192.009
					c0,0,5.031-0.454,4.934,3.855"/>
			</g>
			<path style="fill:#5EA9BE;" d="M259.155,357.597c0,0,10.547-56.536,48.507-63.49s58.217,33.257,61.24,52.908
				C368.902,349.434,316.296,289.269,259.155,357.597z"/>
			<path style="fill:#5EA9BE;" d="M189.618,317.991c0,0-5.744-23.582-25.698-21.768s-18.14,39.908-18.14,39.908L189.618,317.991z"/>
			<path style="fill:none;stroke:#507C89;stroke-width:2.571;stroke-linecap:round;stroke-miterlimit:10;" d="M255.829,336.131
				c0,0,20.256,0,29.024,17.233"/>
		</g>
		<g id="Books">
			<g>
				<ellipse style="fill:#71508E;" cx="431.252" cy="443.006" rx="26.385" ry="4.842"/>
				<rect x="404.426" y="434.087" style="fill:#71508E;" width="53.211" height="8.919"/>
				<path style="fill:#A85AA1;" d="M457.636,434.625c0,2.697-11.912,4.883-26.605,4.883s-26.605-2.186-26.605-4.883
					c0-2.697,11.912-4.883,26.605-4.883S457.636,431.928,457.636,434.625z"/>
				<polygon style="fill:#A85AA1;" points="471.393,339.457 390.67,339.457 404.728,434.087 457.636,434.087 				"/>
				<ellipse style="fill:#71508E;" cx="431.031" cy="339.608" rx="40.361" ry="7.407"/>
				<path style="fill:#FDF8E2;" d="M434.465,336.013c0,0-5.702-14.395,2.461-15.604c8.163-1.209,6.349,7.861,6.349,7.861
					s3.93-9.675,8.163-5.442c4.233,4.233-5.14,12.093-5.14,12.093s4.233-3.326,6.349,0s4.233,13-9.977,7.861
					C428.461,337.643,425.353,345.57,434.465,336.013z"/>
				<path style="fill:#5EA9BE;" d="M450.229,347.015c0,0-5.14-13.907,0-18.745c5.14-4.837,7.407,5.768,7.407,5.768
					s-0.756-7.582,5.291-5.768c6.047,1.814,0,11.337,0,11.337s4.081-2.28,5.668,2.715
					C468.748,342.033,450.229,347.015,450.229,347.015z"/>
				<path style="fill:#CBE1EF;" d="M421.792,346.82c0,0-5.726-4.34,3.344-7.363c3.628,0-7.848-1.185-2.564-7.092
					c5.285-5.908,9.73,7.244,9.73,7.244s-1.725-10.733,5.229-8.919c6.954,1.814,0,11.489,0,11.489s9.372-7.256,8.465,4.837
					C445.694,346.41,431.448,347.531,421.792,346.82z"/>
			</g>
			<g>
				<g>
					<path style="fill:#71508E;" d="M368.902,372.411l5.744,3.023l-15.419,45.955l-38.699,5.442c0,0,20.256-10.582,31.443-24.489
						C363.157,388.435,368.902,372.411,368.902,372.411z"/>
					<polygon style="fill:#FDF8E2;" points="361.646,368.783 373.437,371.504 374.646,376.946 					"/>
					<path style="fill:#FDF8E2;" d="M361.646,368.783l7.256,3.628c0,0-13.303,56.536-48.373,54.42c-0.302,0-1.512-6.954-1.512-6.954
						s21.58-5.03,31.745-24.489C361.343,375.132,361.646,368.783,361.646,368.783z"/>
				</g>
				<g>
					<polygon style="fill:#FDF8E2;" points="370.716,368.783 381.076,371.419 366.785,437.11 354.087,432.878 					"/>
					<polyline style="fill:#A85AA1;" points="366.785,437.11 380.995,432.878 388.553,374.83 380.995,371.504 					"/>
				</g>
				<polygon style="fill:#FDF8E2;" points="395.205,359.108 382.507,359.108 380.39,436.808 396.716,436.808 				"/>
			</g>
		</g>
	</g>
</g>
</svg>
